<svg width="107" height="102" viewBox="0 0 107 102" fill="none" xmlns="http://www.w3.org/2000/svg">
<g opacity="0.2" clip-path="url(#clip0_1794_3154)">
<path d="M177.748 70.004H5.6167V101.509H177.748V70.004Z" stroke="#0F0F0F" stroke-linecap="round" stroke-linejoin="round"/>
<path d="M184.519 64.6954H0.480957V70.004H184.519V64.6954Z" stroke="#0F0F0F" stroke-linecap="round" stroke-linejoin="round"/>
<path d="M145.307 62.0459H39.6929V64.6954H145.307V62.0459Z" stroke="#0F0F0F" stroke-linecap="round" stroke-linejoin="round"/>
<path d="M145.307 30.4352H39.6929V64.6954H145.307V30.4352Z" stroke="#0F0F0F" stroke-linecap="round" stroke-linejoin="round"/>
<path d="M9.77162 72.4126H5.6167V101.518H9.77162V72.4126Z" stroke="#0F0F0F" stroke-linecap="round" stroke-linejoin="round"/>
<path d="M31.2868 72.4126H27.1318V101.518H31.2868V72.4126Z" stroke="#0F0F0F" stroke-linecap="round" stroke-linejoin="round"/>
<path d="M31.2868 70.004H5.6167V72.4126H31.2868V70.004Z" stroke="#0F0F0F" stroke-linecap="round" stroke-linejoin="round"/>
<path d="M16.8602 76.2375H20.0437C21.6115 76.2375 22.8714 77.5092 22.8714 79.07V101.509H14.0229V79.07C14.0229 77.4996 15.2925 76.2375 16.8506 76.2375H16.8602Z" stroke="#0F0F0F" stroke-linecap="round" stroke-linejoin="round"/>
<path d="M39.3273 74.4069H42.5974C44.2036 74.4069 45.5116 75.7172 45.5116 77.3262V90.6313H36.4131V77.3262C36.4131 75.7172 37.7211 74.4069 39.3273 74.4069Z" stroke="#0F0F0F" stroke-linecap="round" stroke-linejoin="round"/>
<path d="M52.0036 74.4069H55.2737C56.8798 74.4069 58.1879 75.7172 58.1879 77.3262V90.6313H49.0894V77.3262C49.0894 75.7172 50.3974 74.4069 52.0036 74.4069Z" stroke="#0F0F0F" stroke-linecap="round" stroke-linejoin="round"/>
<path d="M64.6798 74.4069H67.9499C69.5561 74.4069 70.8641 75.7172 70.8641 77.3262V90.6313H61.7656V77.3262C61.7656 75.7172 63.0737 74.4069 64.6798 74.4069Z" stroke="#0F0F0F" stroke-linecap="round" stroke-linejoin="round"/>
<path d="M77.3659 74.4069H80.636C82.2421 74.4069 83.5502 75.7172 83.5502 77.3262V90.6313H74.4517V77.3262C74.4517 75.7172 75.7597 74.4069 77.3659 74.4069Z" stroke="#0F0F0F" stroke-linecap="round" stroke-linejoin="round"/>
<path d="M90.0426 74.4069H93.3127C94.9189 74.4069 96.2269 75.7172 96.2269 77.3262V90.6313H87.1284V77.3262C87.1284 75.7172 88.4365 74.4069 90.0426 74.4069Z" stroke="#0F0F0F" stroke-linecap="round" stroke-linejoin="round"/>
<path d="M102.719 74.4069H105.989C107.595 74.4069 108.903 75.7172 108.903 77.3262V90.6313H99.8047V77.3262C99.8047 75.7172 101.113 74.4069 102.719 74.4069Z" stroke="#0F0F0F" stroke-linecap="round" stroke-linejoin="round"/>
<path d="M31.2773 90.6313H152.078" stroke="#0F0F0F" stroke-linecap="round" stroke-linejoin="round"/>
<path d="M31.2773 92.9243H152.078" stroke="#0F0F0F" stroke-linecap="round" stroke-linejoin="round"/>
<path d="M64.5359 22.7469H39.6929V64.6954H64.5359V22.7469Z" stroke="#0F0F0F" stroke-linecap="round" stroke-linejoin="round"/>
<path d="M72.6726 20.03H31.5562V22.7469H72.6726V20.03Z" stroke="#0F0F0F" stroke-linecap="round" stroke-linejoin="round"/>
<path d="M42.5782 7.60159H61.6408C66.0362 7.60159 69.6141 11.176 69.6141 15.5886V20.0782H34.605V15.5886C34.605 11.1856 38.1732 7.60159 42.5782 7.60159Z" stroke="#0F0F0F" stroke-linecap="round" stroke-linejoin="round"/>
<path d="M55.1585 4.04647V0.48172H52.1096H49.0704V4.04647H46.0215V7.60158H52.1096H58.2073V4.04647H55.1585Z" stroke="#0F0F0F" stroke-linecap="round" stroke-linejoin="round"/>
<path d="M43.4053 30.4352V64.6954" stroke="#0F0F0F" stroke-linecap="round" stroke-linejoin="round"/>
<path d="M59.4575 30.4352V64.6954" stroke="#0F0F0F" stroke-linecap="round" stroke-linejoin="round"/>
<path d="M50.0609 36.4953H53.2444C54.8121 36.4953 56.0721 37.7671 56.0721 39.3279V56.2556H47.2236V39.3279C47.2236 37.7574 48.4932 36.4953 50.0513 36.4953H50.0609Z" stroke="#0F0F0F" stroke-linecap="round" stroke-linejoin="round"/>
<path d="M72.8169 36.4953H75.433C76.7122 36.4953 77.7605 37.5359 77.7605 38.8269V56.2556H70.499V38.8269C70.499 37.5455 71.5378 36.4953 72.8265 36.4953H72.8169Z" stroke="#0F0F0F" stroke-linecap="round" stroke-linejoin="round"/>
<path d="M91.1968 36.4953H93.8129C95.0921 36.4953 96.1404 37.5359 96.1404 38.8269V56.2556H88.8789V38.8269C88.8789 37.5455 89.9176 36.4953 91.2064 36.4953H91.1968Z" stroke="#0F0F0F" stroke-linecap="round" stroke-linejoin="round"/>
<path d="M109.567 36.4953H112.183C113.462 36.4953 114.511 37.5359 114.511 38.8269V56.2556H107.249V38.8269C107.249 37.5455 108.288 36.4953 109.577 36.4953H109.567Z" stroke="#0F0F0F" stroke-linecap="round" stroke-linejoin="round"/>
<path d="M64.5361 27.4486H120.455" stroke="#0F0F0F" stroke-linecap="round" stroke-linejoin="round"/>
<path d="M117.675 56.2556H67.3252V58.6257H117.675V56.2556Z" stroke="#0F0F0F" stroke-linecap="round" stroke-linejoin="round"/>
</g>
<defs>
<clipPath id="clip0_1794_3154">
<rect width="185" height="102" fill="white"/>
</clipPath>
</defs>
</svg>
