<svg width="108" height="104" viewBox="0 0 108 104" fill="none" xmlns="http://www.w3.org/2000/svg">
<g opacity="0.29" clip-path="url(#clip0_1794_2814)">
<path d="M70.6736 94.0407H37.7716C37.5062 94.0407 37.292 93.8266 37.292 93.5613V60.3436C37.292 60.0783 37.5062 59.8642 37.7716 59.8642H70.6736C70.939 59.8642 71.1532 60.0783 71.1532 60.3436V93.5613C71.1532 93.8266 70.939 94.0407 70.6736 94.0407ZM38.2512 93.0819H70.194V60.823H38.2512V93.0819Z" fill="black"/>
<path d="M129.929 94.0407H97.0275C96.7621 94.0407 96.5479 93.8266 96.5479 93.5613V60.3436C96.5479 60.0783 96.7621 59.8642 97.0275 59.8642H129.929C130.195 59.8642 130.409 60.0783 130.409 60.3436V93.5613C130.409 93.8266 130.195 94.0407 129.929 94.0407ZM97.5071 93.0819H129.45V60.823H97.5071V93.0819Z" fill="black"/>
<path d="M97.027 94.0407H70.6735C70.4081 94.0407 70.1938 93.8266 70.1938 93.5613V53.6093C70.1938 53.344 70.4081 53.1298 70.6735 53.1298H97.027C97.2924 53.1298 97.5067 53.344 97.5067 53.6093V93.5613C97.5067 93.8266 97.2924 94.0407 97.027 94.0407ZM71.1531 93.0819H96.5474V54.0887H71.1531V93.0819Z" fill="black"/>
<path d="M97.027 54.0887H70.6735C70.4081 54.0887 70.1938 53.8745 70.1938 53.6093V46.958C70.1938 46.6928 70.4081 46.4786 70.6735 46.4786H97.027C97.2924 46.4786 97.5067 46.6928 97.5067 46.958V53.6093C97.5067 53.8745 97.2924 54.0887 97.027 54.0887ZM71.1531 53.1298H96.5474V47.4375H71.1531V53.1298Z" fill="black"/>
<path d="M97.027 54.0887H70.6735C70.4081 54.0887 70.1938 53.8745 70.1938 53.6093V48.5881C70.1938 48.3228 70.4081 48.1087 70.6735 48.1087H97.027C97.2924 48.1087 97.5067 48.3228 97.5067 48.5881V53.6093C97.5067 53.8745 97.2924 54.0887 97.027 54.0887ZM71.1531 53.1298H96.5474V49.0675H71.1531V53.1298Z" fill="black"/>
<path d="M97.0273 47.5206C96.9665 47.5206 96.9026 47.5078 96.8418 47.4822C96.8131 47.4694 96.7843 47.4535 96.7555 47.4375H70.9423C70.9167 47.4566 70.888 47.4694 70.856 47.4822C70.6769 47.5557 70.4723 47.5174 70.3348 47.3799C67.4123 44.4746 65.8008 40.7127 65.8008 36.791C65.8008 31.5845 71.1534 24.2301 82.1591 14.3028C82.2997 14.175 82.5012 14.143 82.6738 14.2197H84.8865C84.9217 14.1878 84.9632 14.159 85.0112 14.1366C85.1807 14.0567 85.3821 14.0855 85.5228 14.2101C91.6364 19.4806 101.891 29.4175 101.891 36.7879C101.891 40.7095 100.279 44.4714 97.3566 47.3767C97.2639 47.4662 97.1424 47.5174 97.0177 47.5174L97.0273 47.5206ZM70.792 46.4786H96.909C99.5117 43.7875 100.941 40.358 100.941 36.791C100.941 31.7347 95.2047 23.8722 85.1871 15.1818H82.6227C72.0998 24.6968 66.7632 31.968 66.7632 36.791C66.7632 40.358 68.1925 43.7875 70.7952 46.4786H70.792Z" fill="black"/>
<path d="M91.6014 47.4375H70.5908C70.4629 47.4375 70.3382 47.3863 70.2487 47.2936C67.4605 44.4331 65.9001 40.7958 65.8458 37.0531L65.8138 36.8869C65.8074 36.855 65.8042 36.8262 65.8042 36.7942C65.8042 31.642 71.0481 24.3708 81.8299 14.5585C82.025 14.3827 82.3223 14.3955 82.5014 14.5841C87.3935 19.7843 95.6014 29.5869 95.6014 36.7911C95.6014 40.6424 94.3129 44.3596 91.9723 47.2585C91.8796 47.3704 91.7453 47.4375 91.5982 47.4375H91.6014ZM70.7955 46.4786H91.368C93.4815 43.7747 94.6422 40.3452 94.6422 36.7911C94.6422 30.0695 86.9491 20.7591 82.1273 15.5845C71.9657 24.8821 66.7954 32 66.7634 36.7431L66.7954 36.9061C66.8018 36.9349 66.805 36.9636 66.805 36.9924C66.8434 40.4443 68.2567 43.8034 70.7955 46.4754V46.4786Z" fill="black"/>
<path d="M85.2188 15.1818H82.485C82.2196 15.1818 82.0054 14.9676 82.0054 14.7024V10.7711C82.0054 10.5058 82.2196 10.2916 82.485 10.2916H85.2188C85.4842 10.2916 85.6984 10.5058 85.6984 10.7711V14.7024C85.6984 14.9676 85.4842 15.1818 85.2188 15.1818ZM82.9646 14.2229H84.7392V11.2505H82.9646V14.2229Z" fill="black"/>
<path d="M84.5538 11.2505H83.1437C82.8783 11.2505 82.6641 11.0364 82.6641 10.7711V8.80543C82.6641 8.54015 82.8783 8.32601 83.1437 8.32601H84.5538C84.8192 8.32601 85.0334 8.54015 85.0334 8.80543V10.7711C85.0334 11.0364 84.8192 11.2505 84.5538 11.2505ZM83.6233 10.2916H84.0741V9.28486H83.6233V10.2916Z" fill="black"/>
<path d="M83.8087 9.24331C83.5433 9.24331 83.3291 9.02917 83.3291 8.76388V0.479425C83.3291 0.214143 83.5433 0 83.8087 0C84.0741 0 84.2883 0.214143 84.2883 0.479425V8.76388C84.2883 9.02917 84.0741 9.24331 83.8087 9.24331Z" fill="black"/>
<path d="M70.6736 60.8262H37.7716C37.5062 60.8262 37.292 60.6121 37.292 60.3468V57.2082C37.292 56.9429 37.5062 56.7287 37.7716 56.7287H70.6736C70.939 56.7287 71.1532 56.9429 71.1532 57.2082V60.3468C71.1532 60.6121 70.939 60.8262 70.6736 60.8262ZM38.2512 59.8674H70.194V57.6876H38.2512V59.8674Z" fill="black"/>
<path d="M129.929 60.8262H97.0275C96.7621 60.8262 96.5479 60.6121 96.5479 60.3468V57.2082C96.5479 56.9429 96.7621 56.7287 97.0275 56.7287H129.929C130.195 56.7287 130.409 56.9429 130.409 57.2082V60.3468C130.409 60.6121 130.195 60.8262 129.929 60.8262ZM97.5071 59.8674H129.45V57.6876H97.5071V59.8674Z" fill="black"/>
<path d="M120.314 57.6876H103.409C103.144 57.6876 102.93 57.4734 102.93 57.2082V53.6956C102.93 53.4303 103.144 53.2161 103.409 53.2161H120.314C120.58 53.2161 120.794 53.4303 120.794 53.6956V57.2082C120.794 57.4734 120.58 57.6876 120.314 57.6876ZM103.889 56.7287H119.835V54.175H103.889V56.7287Z" fill="black"/>
<path d="M120.273 54.175H103.451C103.323 54.175 103.202 54.1238 103.109 54.0344C101.203 52.1103 100.193 49.7355 100.193 47.169C100.193 43.7715 103.621 39.0284 110.668 32.6744C110.754 32.5977 110.863 32.5529 110.978 32.5497L112.721 32.5082C112.852 32.5018 112.954 32.5465 113.044 32.6232C116.96 35.992 123.528 42.3588 123.528 47.169C123.528 49.7355 122.521 52.1071 120.612 54.0344C120.522 54.1238 120.401 54.175 120.27 54.175H120.273ZM103.653 53.2161H120.068C121.705 51.4998 122.569 49.4127 122.569 47.169C122.569 43.96 118.924 38.9708 112.557 33.4702L111.179 33.5022C104.525 39.5238 101.152 44.1199 101.152 47.1658C101.152 49.4095 102.015 51.4966 103.653 53.2129V53.2161Z" fill="black"/>
<path d="M63.8793 57.6876H46.9742C46.7089 57.6876 46.4946 57.4734 46.4946 57.2082V53.6956C46.4946 53.4303 46.7089 53.2161 46.9742 53.2161H63.8793C64.1447 53.2161 64.3589 53.4303 64.3589 53.6956V57.2082C64.3589 57.4734 64.1447 57.6876 63.8793 57.6876ZM47.4539 56.7287H63.3997V54.175H47.4539V56.7287Z" fill="black"/>
<path d="M63.8374 54.175H47.0155C46.8876 54.175 46.7661 54.1238 46.6734 54.0344C44.7677 52.1071 43.7573 49.7355 43.7573 47.169C43.7573 43.7715 47.185 39.0284 54.2354 32.6744C54.3218 32.5977 54.4305 32.5529 54.5456 32.5497L56.285 32.5082C56.4033 32.5018 56.5184 32.5465 56.608 32.6232C60.5249 35.9888 67.0925 42.3588 67.0925 47.169C67.0925 49.7323 66.0853 52.1071 64.1764 54.0344C64.0868 54.1238 63.9621 54.175 63.8342 54.175H63.8374ZM47.217 53.2161H63.636C65.2731 51.4998 66.1364 49.4127 66.1364 47.169C66.1364 43.9568 62.4913 38.9708 56.1251 33.4702L54.747 33.5022C48.0931 39.5206 44.7198 44.1199 44.7198 47.1658C44.7198 49.4095 45.5831 51.4966 47.2202 53.2129L47.217 53.2161Z" fill="black"/>
<path d="M56.7935 33.4638H54.0597C53.7943 33.4638 53.5801 33.2497 53.5801 32.9844V31.0188C53.5801 30.7535 53.7943 30.5394 54.0597 30.5394H56.7935C57.0589 30.5394 57.2732 30.7535 57.2732 31.0188V32.9844C57.2732 33.2497 57.0589 33.4638 56.7935 33.4638ZM54.5393 32.505H56.3139V31.4982H54.5393V32.505Z" fill="black"/>
<path d="M55.4249 31.4566C55.1595 31.4566 54.9453 31.2425 54.9453 30.9772V26.5026C54.9453 26.2373 55.1595 26.0232 55.4249 26.0232C55.6903 26.0232 55.9046 26.2373 55.9046 26.5026V30.9772C55.9046 31.2425 55.6903 31.4566 55.4249 31.4566Z" fill="black"/>
<path d="M70.6738 34.2181H66.8624C66.597 34.2181 66.3828 34.004 66.3828 33.7387C66.3828 33.4734 66.597 33.2593 66.8624 33.2593H70.6738C70.9392 33.2593 71.1534 33.4734 71.1534 33.7387C71.1534 34.004 70.9392 34.2181 70.6738 34.2181Z" fill="black"/>
<path d="M77.2219 27.5222H70.6735C70.4081 27.5222 70.1938 27.308 70.1938 27.0427C70.1938 26.7775 70.4081 26.5633 70.6735 26.5633H77.2219C77.4873 26.5633 77.7015 26.7775 77.7015 27.0427C77.7015 27.308 77.4873 27.5222 77.2219 27.5222Z" fill="black"/>
<path d="M90.3574 40.8694H83.8121C83.5468 40.8694 83.3325 40.6552 83.3325 40.3899C83.3325 40.1247 83.5468 39.9105 83.8121 39.9105H90.3574C90.6228 39.9105 90.837 40.1247 90.837 40.3899C90.837 40.6552 90.6228 40.8694 90.3574 40.8694Z" fill="black"/>
<path d="M73.4909 41.0771H66.8209C66.5555 41.0771 66.3413 40.863 66.3413 40.5977C66.3413 40.3324 66.5555 40.1183 66.8209 40.1183H73.4909C73.7562 40.1183 73.9705 40.3324 73.9705 40.5977C73.9705 40.863 73.7562 41.0771 73.4909 41.0771Z" fill="black"/>
<path d="M77.5515 43.5477H71.0031C70.7377 43.5477 70.5234 43.3336 70.5234 43.0683C70.5234 42.803 70.7377 42.5889 71.0031 42.5889H77.5515C77.8169 42.5889 78.0311 42.803 78.0311 43.0683C78.0311 43.3336 77.8169 43.5477 77.5515 43.5477Z" fill="black"/>
<path d="M169.459 100.695H4.54017C4.27478 100.695 4.06055 100.481 4.06055 100.216V93.5645C4.06055 93.2992 4.27478 93.0851 4.54017 93.0851H169.459C169.725 93.0851 169.939 93.2992 169.939 93.5645V100.216C169.939 100.481 169.725 100.695 169.459 100.695ZM5.01979 99.7363H168.98V94.0439H5.01979V99.7363Z" fill="black"/>
<path d="M66.0723 54.175H44.8156C44.5502 54.175 44.3359 53.9608 44.3359 53.6956C44.3359 53.4303 44.5502 53.2161 44.8156 53.2161H66.0723C66.3377 53.2161 66.552 53.4303 66.552 53.6956C66.552 53.9608 66.3377 54.175 66.0723 54.175Z" fill="black"/>
<path d="M122.469 54.175H101.213C100.947 54.175 100.733 53.9608 100.733 53.6956C100.733 53.4303 100.947 53.2161 101.213 53.2161H122.469C122.735 53.2161 122.949 53.4303 122.949 53.6956C122.949 53.9608 122.735 54.175 122.469 54.175Z" fill="black"/>
<path d="M73.9892 54.0887H70.6735C70.4081 54.0887 70.1938 53.8745 70.1938 53.6093V48.5881C70.1938 48.3228 70.4081 48.1087 70.6735 48.1087H73.9892C74.2546 48.1087 74.4689 48.3228 74.4689 48.5881V53.6093C74.4689 53.8745 74.2546 54.0887 73.9892 54.0887ZM71.1531 53.1298H73.5096V49.0675H71.1531V53.1298Z" fill="black"/>
<path d="M77.2636 54.0887H73.9894C73.724 54.0887 73.5098 53.8745 73.5098 53.6093V48.5881C73.5098 48.3228 73.724 48.1087 73.9894 48.1087H77.2636C77.529 48.1087 77.7432 48.3228 77.7432 48.5881V53.6093C77.7432 53.8745 77.529 54.0887 77.2636 54.0887ZM74.469 53.1298H76.784V49.0675H74.469V53.1298Z" fill="black"/>
<path d="M80.5796 54.0887H77.2638C76.9984 54.0887 76.7842 53.8745 76.7842 53.6093V48.5881C76.7842 48.3228 76.9984 48.1087 77.2638 48.1087H80.5796C80.845 48.1087 81.0592 48.3228 81.0592 48.5881V53.6093C81.0592 53.8745 80.845 54.0887 80.5796 54.0887ZM77.7434 53.1298H80.1V49.0675H77.7434V53.1298Z" fill="black"/>
<path d="M83.8505 54.0887H80.5763C80.3109 54.0887 80.0967 53.8745 80.0967 53.6093V48.5881C80.0967 48.3228 80.3109 48.1087 80.5763 48.1087H83.8505C84.1159 48.1087 84.3301 48.3228 84.3301 48.5881V53.6093C84.3301 53.8745 84.1159 54.0887 83.8505 54.0887ZM81.0559 53.1298H83.3709V49.0675H81.0559V53.1298Z" fill="black"/>
<path d="M87.1249 54.0887H83.8507C83.5853 54.0887 83.3711 53.8745 83.3711 53.6093V48.5881C83.3711 48.3228 83.5853 48.1087 83.8507 48.1087H87.1249C87.3903 48.1087 87.6046 48.3228 87.6046 48.5881V53.6093C87.6046 53.8745 87.3903 54.0887 87.1249 54.0887ZM84.3303 53.1298H86.6453V49.0675H84.3303V53.1298Z" fill="black"/>
<path d="M90.4404 54.0887H87.1246C86.8593 54.0887 86.645 53.8745 86.645 53.6093V48.5881C86.645 48.3228 86.8593 48.1087 87.1246 48.1087H90.4404C90.7058 48.1087 90.92 48.3228 90.92 48.5881V53.6093C90.92 53.8745 90.7058 54.0887 90.4404 54.0887ZM87.6043 53.1298H89.9608V49.0675H87.6043V53.1298Z" fill="black"/>
<path d="M93.7113 54.0887H90.4371C90.1718 54.0887 89.9575 53.8745 89.9575 53.6093V48.5881C89.9575 48.3228 90.1718 48.1087 90.4371 48.1087H93.7113C93.9767 48.1087 94.191 48.3228 94.191 48.5881V53.6093C94.191 53.8745 93.9767 54.0887 93.7113 54.0887ZM90.9168 53.1298H93.2317V49.0675H90.9168V53.1298Z" fill="black"/>
<path d="M97.027 56.3484H70.6735C70.4081 56.3484 70.1938 56.1342 70.1938 55.869V53.6093C70.1938 53.344 70.4081 53.1298 70.6735 53.1298H97.027C97.2924 53.1298 97.5067 53.344 97.5067 53.6093V55.869C97.5067 56.1342 97.2924 56.3484 97.027 56.3484ZM71.1531 55.3895H96.5474V54.0887H71.1531V55.3895Z" fill="black"/>
<path d="M37.7716 62.7503C37.5062 62.7503 37.292 62.5362 37.292 62.2709V50.346C37.292 50.0807 37.5062 49.8666 37.7716 49.8666C38.037 49.8666 38.2512 50.0807 38.2512 50.346V62.2709C38.2512 62.5362 38.037 62.7503 37.7716 62.7503Z" fill="black"/>
<path d="M43.9459 57.6876C43.6805 57.6876 43.4663 57.4734 43.4663 57.2082V52.8582C43.4663 52.5929 43.6805 52.3787 43.9459 52.3787C44.2113 52.3787 44.4256 52.5929 44.4256 52.8582V57.2082C44.4256 57.4734 44.2113 57.6876 43.9459 57.6876Z" fill="black"/>
<path d="M93.7114 94.0407H73.9894C73.724 94.0407 73.5098 93.8266 73.5098 93.5613V60.3436C73.5098 60.0783 73.724 59.8642 73.9894 59.8642H93.7114C93.9768 59.8642 94.191 60.0783 94.191 60.3436V93.5613C94.191 93.8266 93.9768 94.0407 93.7114 94.0407ZM74.469 93.0819H93.2318V60.823H74.469V93.0819Z" fill="black"/>
<path d="M90.4406 94.0407H77.2638C76.9984 94.0407 76.7842 93.8266 76.7842 93.5613V70.3028C76.7842 66.3715 79.9561 63.1722 83.8506 63.1722C87.7451 63.1722 90.917 66.3715 90.917 70.3028V93.5613C90.917 93.8266 90.7028 94.0407 90.4374 94.0407H90.4406ZM77.7434 93.0819H89.961V70.3028C89.961 66.9564 87.1632 64.131 83.8538 64.131C80.5444 64.131 77.7466 66.9564 77.7466 70.3028V93.0819H77.7434Z" fill="black"/>
<path d="M93.7114 74.0871H73.9894C73.724 74.0871 73.5098 73.8729 73.5098 73.6077V60.3468C73.5098 60.0815 73.724 59.8674 73.9894 59.8674H93.7114C93.9768 59.8674 94.191 60.0815 94.191 60.3468V73.6077C94.191 73.8729 93.9768 74.0871 93.7114 74.0871ZM74.469 73.1282H93.2318V60.8262H74.469V73.1282Z" fill="black"/>
<path d="M87.1245 94.0408H80.5792C80.3138 94.0408 80.0996 93.8266 80.0996 93.5613V80.2589C80.0996 78.1718 81.7847 76.4746 83.8534 76.4746C85.9222 76.4746 87.6073 78.1718 87.6073 80.2589V93.5613C87.6073 93.8266 87.393 94.0408 87.1276 94.0408H87.1245ZM81.0589 93.0819H86.6448V80.2589C86.6448 78.6992 85.3914 77.4335 83.8502 77.4335C82.3091 77.4335 81.0557 78.7024 81.0557 80.2589V93.0819H81.0589Z" fill="black"/>
<path d="M50.8687 94.0407H37.775C37.5096 94.0407 37.2954 93.8266 37.2954 93.5613V60.3436C37.2954 60.0783 37.5096 59.8642 37.775 59.8642H50.8687C51.1341 59.8642 51.3483 60.0783 51.3483 60.3436V93.5613C51.3483 93.8266 51.1341 94.0407 50.8687 94.0407ZM38.2547 93.0819H50.3891V60.823H38.2547V93.0819Z" fill="black"/>
<path d="M113.229 77.4335H96.9025C96.6371 77.4335 96.4229 77.2193 96.4229 76.9541C96.4229 76.6888 96.6371 76.4746 96.9025 76.4746H113.229C113.494 76.4746 113.708 76.6888 113.708 76.9541C113.708 77.2193 113.494 77.4335 113.229 77.4335Z" fill="black"/>
<path d="M111.822 77.4335H101.92C101.654 77.4335 101.44 77.2193 101.44 76.9541V68.5449C101.44 65.5118 103.867 63.0443 106.85 63.0443C109.833 63.0443 112.302 65.5118 112.302 68.5449V76.9541C112.302 77.2193 112.088 77.4335 111.822 77.4335ZM102.399 76.4746H111.343V68.5449C111.343 66.0423 109.328 64.0032 106.85 64.0032C104.372 64.0032 102.399 66.0392 102.399 68.5449V76.4746Z" fill="black"/>
<path d="M111.822 94.0408H101.92C101.654 94.0408 101.44 93.8266 101.44 93.5613V85.1522C101.44 82.1446 103.867 79.6964 106.85 79.6964C109.833 79.6964 112.302 82.1446 112.302 85.1522V93.5613C112.302 93.8266 112.088 94.0408 111.822 94.0408ZM102.399 93.0819H111.343V85.1522C111.343 82.672 109.328 80.6552 106.85 80.6552C104.372 80.6552 102.399 82.672 102.399 85.1522V93.0819Z" fill="black"/>
<path d="M70.4661 77.4335H54.1398C53.8744 77.4335 53.6602 77.2193 53.6602 76.9541C53.6602 76.6888 53.8744 76.4746 54.1398 76.4746H70.4661C70.7315 76.4746 70.9457 76.6888 70.9457 76.9541C70.9457 77.2193 70.7315 77.4335 70.4661 77.4335Z" fill="black"/>
<path d="M65.4936 77.4335H55.5494C55.2841 77.4335 55.0698 77.2193 55.0698 76.9541V68.5449C55.0698 65.5118 57.5159 63.0443 60.5215 63.0443C63.5271 63.0443 65.9732 65.5118 65.9732 68.5449V76.9541C65.9732 77.2193 65.759 77.4335 65.4936 77.4335ZM56.0291 76.4746H65.014V68.5449C65.014 66.0423 62.9996 64.0032 60.5215 64.0032C58.0435 64.0032 56.0291 66.0392 56.0291 68.5449V76.4746Z" fill="black"/>
<path d="M65.4936 94.0408H55.5494C55.2841 94.0408 55.0698 93.8266 55.0698 93.5613V85.1522C55.0698 82.1446 57.5159 79.6964 60.5215 79.6964C63.5271 79.6964 65.9732 82.1446 65.9732 85.1522V93.5613C65.9732 93.8266 65.759 94.0408 65.4936 94.0408ZM56.0291 93.0819H65.014V85.1522C65.014 82.672 62.9996 80.6552 60.5215 80.6552C58.0435 80.6552 56.0291 82.672 56.0291 85.1522V93.0819Z" fill="black"/>
<path d="M46.766 77.4335H41.212C40.9467 77.4335 40.7324 77.2193 40.7324 76.954V66.3715C40.7324 64.5369 42.1937 63.0475 43.9875 63.0475C45.7812 63.0475 47.2425 64.5401 47.2425 66.3715V76.954C47.2425 77.2193 47.0282 77.4335 46.7629 77.4335H46.766ZM41.6917 76.4746H46.2864V66.3715C46.2864 65.0675 45.2568 64.0064 43.9906 64.0064C42.7244 64.0064 41.6949 65.0675 41.6949 66.3715V76.4746H41.6917Z" fill="black"/>
<path d="M48.0483 77.4335H37.4391C37.1737 77.4335 36.9595 77.2193 36.9595 76.9541C36.9595 76.6888 37.1737 76.4746 37.4391 76.4746H48.0483C48.3137 76.4746 48.5279 76.6888 48.5279 76.9541C48.5279 77.2193 48.3137 77.4335 48.0483 77.4335Z" fill="black"/>
<path d="M46.766 94.0408H41.212C40.9467 94.0408 40.7324 93.8266 40.7324 93.5613V82.9788C40.7324 81.1698 42.1937 79.6964 43.9875 79.6964C45.7812 79.6964 47.2425 81.1698 47.2425 82.9788V93.5613C47.2425 93.8266 47.0282 94.0408 46.7629 94.0408H46.766ZM41.6917 93.0819H46.2864V82.9788C46.2864 81.6972 45.2568 80.6552 43.9906 80.6552C42.7244 80.6552 41.6949 81.6972 41.6949 82.9788V93.0819H41.6917Z" fill="black"/>
<path d="M18.9672 94.0407C18.9672 94.0407 18.964 94.0407 18.9608 94.0407H6.48751C6.35642 94.0407 6.22852 93.9864 6.13899 93.8905C6.04946 93.7946 6.0015 93.6668 6.00789 93.5326L7.29327 71.5717C7.30926 71.3192 7.5171 71.121 7.77289 71.121H17.6755C17.9281 71.121 18.1391 71.3192 18.1551 71.5717L19.4341 93.4558C19.4405 93.491 19.4469 93.5262 19.4469 93.5613C19.4469 93.8266 19.2326 94.0407 18.9672 94.0407ZM6.99591 93.0819H18.4524L17.2246 72.0799H8.22694L6.99911 93.0819H6.99591Z" fill="black"/>
<path d="M18.5487 72.0799H6.86192C5.96663 72.0799 5.26318 71.3544 5.26318 70.4275C5.26318 69.5006 5.97942 68.8166 6.86192 68.8166H18.5487C19.4664 68.8166 20.1858 69.523 20.1858 70.4275C20.1858 71.332 19.4823 72.0799 18.5487 72.0799ZM6.86192 69.7787C6.5038 69.7787 6.22243 70.0631 6.22243 70.4307C6.22243 70.8238 6.49741 71.1243 6.86192 71.1243H18.5487C18.9484 71.1243 19.2265 70.8398 19.2265 70.4307C19.2265 70.0599 18.9356 69.7787 18.5487 69.7787H6.86192Z" fill="black"/>
<path d="M17.5991 69.7787C17.5991 69.7787 17.5959 69.7787 17.5927 69.7787H7.85638C7.72529 69.7787 7.60059 69.7243 7.51106 69.6316C7.42153 69.5357 7.37357 69.4111 7.37996 69.2801L8.37438 47.1914C8.38717 46.9357 8.5982 46.7343 8.854 46.7343H16.5599C16.8157 46.7343 17.0267 46.9357 17.0395 47.1914L18.0723 69.2034C18.0787 69.2353 18.0819 69.2705 18.0819 69.3056C18.0819 69.5709 17.8677 69.785 17.6023 69.785L17.5991 69.7787ZM8.35519 68.8198H17.0875L16.0963 47.69H9.30484L8.35519 68.8198Z" fill="black"/>
<path d="M17.5507 47.6868H7.89756C7.01506 47.6868 6.29883 46.9453 6.29883 46.0375C6.29883 45.1298 7.01506 44.3851 7.89756 44.3851H17.5507C18.4332 44.3851 19.1495 45.1266 19.1495 46.0375C19.1495 46.9485 18.4332 47.6868 17.5507 47.6868ZM7.89756 45.344C7.55224 45.344 7.25807 45.6604 7.25807 46.0375C7.25807 46.4147 7.55224 46.7279 7.89756 46.7279H17.5507C17.8961 46.7279 18.1902 46.4115 18.1902 46.0375C18.1902 45.6636 17.8961 45.344 17.5507 45.344H7.89756Z" fill="black"/>
<path d="M17.0201 45.3472C17.0201 45.3472 17.0169 45.3472 17.0137 45.3472H8.43485C8.30375 45.3472 8.17905 45.2928 8.08952 45.2002C7.99999 45.1075 7.95203 44.9796 7.95523 44.8486L8.82494 22.8014C8.83453 22.5457 9.04557 22.3412 9.30456 22.3412H16.1408C16.3998 22.3412 16.6108 22.5457 16.6204 22.8014L17.4869 44.7719C17.4933 44.8038 17.4965 44.8358 17.4965 44.8678C17.4965 45.133 17.2823 45.3472 17.0169 45.3472H17.0201ZM8.93366 44.3883H16.5149L15.6835 23.3H9.76819L8.93685 44.3883H8.93366Z" fill="black"/>
<path d="M16.8892 23.2968H8.51817C7.63567 23.2968 6.91943 22.5745 6.91943 21.6892C6.91943 20.8038 7.63567 20.0368 8.51817 20.0368H16.8892C17.794 20.0368 18.5263 20.7783 18.5263 21.6892C18.5263 22.6001 17.8068 23.2968 16.8892 23.2968ZM8.51817 20.9956C8.17284 20.9956 7.87868 21.312 7.87868 21.6892C7.87868 22.0663 8.16005 22.338 8.51817 22.338H16.8892C17.276 22.338 17.567 22.0599 17.567 21.6892C17.567 21.3184 17.2633 20.9956 16.8892 20.9956H8.51817Z" fill="black"/>
<path d="M15.9361 20.9988H9.51234C9.24695 20.9988 9.03271 20.7847 9.03271 20.5194V13.6988C9.03271 13.4335 9.24695 13.2193 9.51234 13.2193H15.9361C16.2014 13.2193 16.4157 13.4335 16.4157 13.6988V20.5194C16.4157 20.7847 16.2014 20.9988 15.9361 20.9988ZM9.99196 20.04H15.4564V14.1782H9.99196V20.04Z" fill="black"/>
<path d="M15.8115 14.1782H9.63718C9.50928 14.1782 9.38778 14.127 9.29505 14.0344C8.53725 13.2673 8.12158 12.302 8.12158 11.3144C8.12158 9.69716 10.0912 7.69636 12.2175 5.77227C12.3071 5.69237 12.419 5.64762 12.5405 5.64762H12.873C12.9881 5.64762 13.1 5.68917 13.1864 5.76588C16.0129 8.21414 17.3303 9.97523 17.3303 11.3144C17.3303 12.3052 16.9114 13.2705 16.1568 14.0344C16.0673 14.1238 15.9426 14.175 15.8147 14.175L15.8115 14.1782ZM9.84502 13.2193H15.6037C16.0993 12.66 16.3679 11.992 16.3679 11.3144C16.3679 10.6368 15.7284 9.26248 12.7068 6.62245C11.5077 7.70915 9.08082 9.96244 9.08082 11.3144C9.08082 11.992 9.34941 12.66 9.84502 13.2193Z" fill="black"/>
<path d="M12.7037 6.48182C12.4384 6.48182 12.2241 6.26768 12.2241 6.0024V1.31682C12.2241 1.05154 12.4384 0.837395 12.7037 0.837395C12.9691 0.837395 13.1834 1.05154 13.1834 1.31682V6.0024C13.1834 6.26768 12.9691 6.48182 12.7037 6.48182Z" fill="black"/>
<path d="M17.1803 14.1782H8.2721C8.00671 14.1782 7.79248 13.964 7.79248 13.6988C7.79248 13.4335 8.00671 13.2193 8.2721 13.2193H17.1803C17.4456 13.2193 17.6599 13.4335 17.6599 13.6988C17.6599 13.964 17.4456 14.1782 17.1803 14.1782Z" fill="black"/>
<path d="M9.72043 88.9365C9.72043 88.9365 9.70444 88.9365 9.69485 88.9365C9.42946 88.9237 9.22802 88.6968 9.24081 88.4347L9.90269 75.1322C9.91548 74.867 10.1457 74.6656 10.4047 74.6784C10.6701 74.6912 10.8715 74.9181 10.8587 75.1802L10.1969 88.4826C10.1841 88.7383 9.97303 88.9397 9.71723 88.9397L9.72043 88.9365Z" fill="black"/>
<path d="M33.3879 94.0407C33.3879 94.0407 33.3848 94.0407 33.3816 94.0407H24.7644C24.6333 94.0407 24.5054 93.9864 24.4158 93.8905C24.3263 93.7946 24.2784 93.6668 24.2847 93.5326L25.1545 78.3476C25.1704 78.0951 25.3783 77.8969 25.6341 77.8969H32.4735C32.7261 77.8969 32.9371 78.0951 32.9531 78.3476L33.858 93.4558C33.8644 93.491 33.8708 93.5262 33.8708 93.5613C33.8708 93.8266 33.6565 94.0407 33.3911 94.0407H33.3879ZM25.2728 93.0819H32.8732L32.0194 78.8558H26.0849L25.2696 93.0819H25.2728Z" fill="black"/>
<path d="M33.0908 78.8558H25.0108C24.3362 78.8558 23.7446 78.2613 23.7446 77.5805C23.7446 76.8677 24.3266 76.2637 25.0108 76.2637H33.0908C33.8135 76.2637 34.3986 76.855 34.3986 77.5805C34.3986 78.306 33.8007 78.8558 33.0908 78.8558ZM25.0108 77.2257C24.8669 77.2257 24.7039 77.3823 24.7039 77.5837C24.7039 77.7371 24.8637 77.9001 25.0108 77.9001H33.0908C33.2891 77.9001 33.4394 77.7307 33.4394 77.5837C33.4394 77.3855 33.2827 77.2257 33.0908 77.2257H25.0108Z" fill="black"/>
<path d="M32.4354 77.2257C32.4354 77.2257 32.4322 77.2257 32.429 77.2257H25.7143C25.5832 77.2257 25.4585 77.1714 25.369 77.0787C25.2794 76.986 25.2315 76.8582 25.2379 76.7271L25.9029 61.4559C25.9125 61.2002 26.1268 60.9988 26.3826 60.9988H31.7255C31.9813 60.9988 32.1924 61.2002 32.2052 61.4559L32.9054 76.6472C32.9118 76.6792 32.915 76.7143 32.915 76.7463C32.915 77.0116 32.7008 77.2257 32.4354 77.2257ZM26.2163 76.2669H31.927L31.2651 61.9545H26.8366L26.2131 76.2669H26.2163Z" fill="black"/>
<path d="M32.3871 61.9545H25.714C25.0393 61.9545 24.4478 61.36 24.4478 60.6792C24.4478 59.9984 25.0169 59.4039 25.714 59.4039H32.3871C33.1097 59.4039 33.6533 59.9505 33.6533 60.6792C33.6533 61.4079 33.0841 61.9545 32.3871 61.9545ZM25.714 60.366C25.5637 60.366 25.407 60.4842 25.407 60.6824C25.407 60.8358 25.5637 60.9988 25.714 60.9988H32.3871C32.5757 60.9988 32.694 60.8358 32.694 60.6824C32.694 60.4842 32.5789 60.366 32.3871 60.366H25.714Z" fill="black"/>
<path d="M32.0195 60.366C32.0195 60.366 32.0163 60.366 32.0131 60.366H26.0882C25.9571 60.366 25.8324 60.3116 25.7428 60.2189C25.6533 60.1231 25.6054 59.9984 25.6085 59.8674L26.2289 44.5961C26.2385 44.3404 26.4495 44.1358 26.7085 44.1358H31.4343C31.6933 44.1358 31.9044 44.3404 31.914 44.5961L32.4895 59.7875C32.4959 59.8194 32.4991 59.8514 32.4991 59.8833C32.4991 60.1486 32.2849 60.3628 32.0195 60.3628V60.366ZM26.587 59.4071H31.5143L30.9707 45.0947H27.1689L26.587 59.4071Z" fill="black"/>
<path d="M31.9717 45.0947H26.1715C25.4712 45.0947 24.9053 44.5226 24.9053 43.8194C24.9053 43.1163 25.4488 42.5441 26.1715 42.5441H31.9717C32.6719 42.5441 33.2379 43.1163 33.2379 43.8194C33.2379 44.5226 32.6464 45.0947 31.9717 45.0947ZM26.1715 43.5062C25.9796 43.5062 25.8645 43.6244 25.8645 43.8226C25.8645 43.9728 25.9828 44.139 26.1715 44.139H31.9717C32.122 44.139 32.2786 43.976 32.2786 43.8226C32.2786 43.6244 32.122 43.5062 31.9717 43.5062H26.1715Z" fill="black"/>
<path d="M31.268 43.5062H26.8331C26.5677 43.5062 26.3535 43.292 26.3535 43.0268V38.2996C26.3535 38.0344 26.5677 37.8202 26.8331 37.8202H31.268C31.5334 37.8202 31.7477 38.0344 31.7477 38.2996V43.0268C31.7477 43.292 31.5334 43.5062 31.268 43.5062ZM27.3128 42.5473H30.7884V38.7791H27.3128V42.5473Z" fill="black"/>
<path d="M31.1851 38.7791H26.9165C26.779 38.7791 26.6511 38.7215 26.5583 38.6193C26.0244 38.0248 25.7334 37.3184 25.7334 36.6248C25.7334 35.5477 26.8877 34.2661 28.6239 32.6744C28.7134 32.5945 28.8285 32.5465 28.9469 32.5465H29.1547C29.2698 32.5465 29.3817 32.5881 29.468 32.6616C31.3929 34.3204 32.3682 35.6532 32.3682 36.6217C32.3682 37.3696 32.0708 38.0823 31.5272 38.632C31.4377 38.7247 31.313 38.7759 31.1851 38.7759V38.7791ZM27.1403 37.8202H30.9709C31.2554 37.475 31.4057 37.0659 31.4057 36.6248C31.4057 36.0144 30.5328 34.8829 29.0524 33.5789C28.2434 34.33 26.6894 35.8258 26.6894 36.6248C26.6894 37.0244 26.8461 37.4399 27.1371 37.8202H27.1403Z" fill="black"/>
<path d="M29.0714 33.4223C28.806 33.4223 28.5918 33.2081 28.5918 32.9429V29.7211C28.5918 29.4558 28.806 29.2417 29.0714 29.2417C29.3368 29.2417 29.551 29.4558 29.551 29.7211V32.9429C29.551 33.2081 29.3368 33.4223 29.0714 33.4223Z" fill="black"/>
<path d="M32.1378 38.7791H25.9635C25.6981 38.7791 25.4839 38.5649 25.4839 38.2996C25.4839 38.0344 25.6981 37.8202 25.9635 37.8202H32.1378C32.4032 37.8202 32.6174 38.0344 32.6174 38.2996C32.6174 38.5649 32.4032 38.7791 32.1378 38.7791Z" fill="black"/>
<path d="M26.9577 90.5282C26.9577 90.5282 26.9418 90.5282 26.9322 90.5282C26.6668 90.5154 26.4653 90.2885 26.4781 90.0232L26.9769 80.7767C26.9897 80.5114 27.2167 80.3132 27.4821 80.3228C27.7475 80.3388 27.949 80.5625 27.9362 80.8278L27.4374 90.0743C27.4246 90.33 27.2103 90.5282 26.9577 90.5282Z" fill="black"/>
<path d="M173.52 104H0.479621C0.214231 104 0 103.786 0 103.521V100.216C0 99.9504 0.214231 99.7363 0.479621 99.7363H173.52C173.786 99.7363 174 99.9504 174 100.216V103.521C174 103.786 173.786 104 173.52 104ZM0.959241 103.041H173.041V100.695H0.959241V103.041Z" fill="black"/>
<path d="M47.6361 47.5206C47.6073 47.5206 47.5754 47.5206 47.5434 47.511C47.2844 47.4598 47.1149 47.2073 47.1629 46.9485C48.1829 41.7068 50.581 40.0575 50.6833 39.9904C50.9039 39.8434 51.2013 39.9041 51.3484 40.1247C51.4955 40.3452 51.4347 40.6392 51.2173 40.7895C51.1821 40.815 49.0366 42.346 48.103 47.1338C48.0582 47.364 47.8568 47.5206 47.6329 47.5206H47.6361Z" fill="black"/>
</g>
<defs>
<clipPath id="clip0_1794_2814">
<rect width="174" height="104" fill="white"/>
</clipPath>
</defs>
</svg>
