<svg width="17" height="17" viewBox="0 0 17 17" fill="none" xmlns="http://www.w3.org/2000/svg">
<path d="M8.78613 15.422C4.92014 15.422 1.78613 12.288 1.78613 8.422C1.78613 4.556 4.92014 1.422 8.78613 1.422C12.6521 1.422 15.7861 4.556 15.7861 8.422C15.7861 12.288 12.6521 15.422 8.78613 15.422ZM8.78613 16.422C13.2044 16.422 16.7861 12.8403 16.7861 8.422C16.7861 4.00372 13.2044 0.421997 8.78613 0.421997C4.36786 0.421997 0.786133 4.00372 0.786133 8.422C0.786133 12.8403 4.36786 16.422 8.78613 16.422Z" fill="#FFC400"/>
<path d="M7.78767 11.422C7.78767 10.8697 8.23539 10.422 8.78767 10.422C9.33996 10.422 9.78767 10.8697 9.78767 11.422C9.78767 11.9743 9.33996 12.422 8.78767 12.422C8.23539 12.422 7.78767 11.9743 7.78767 11.422Z" fill="#FFC400"/>
<path d="M7.88564 5.41704C7.83236 4.88428 8.25072 4.422 8.78613 4.422C9.32154 4.422 9.7399 4.88428 9.68663 5.41703L9.33589 8.92448C9.30764 9.20691 9.06998 9.422 8.78613 9.422C8.50229 9.422 8.26462 9.20691 8.23638 8.92448L7.88564 5.41704Z" fill="#FFC400"/>
</svg>
