<svg width="28" height="28" viewBox="0 0 28 28" fill="none" xmlns="http://www.w3.org/2000/svg">
<path d="M6.3855 3.03125H21.2355C22.473 3.03125 23.4855 4.04375 23.4855 5.28125V7.75625C23.4855 8.65625 22.923 9.78125 22.3605 10.3438L17.523 14.6188C16.848 15.1813 16.398 16.3063 16.398 17.2063V22.0438C16.398 22.7188 15.948 23.6188 15.3855 23.9563L13.8105 24.9688C12.348 25.8688 10.323 24.8563 10.323 23.0563V17.0938C10.323 16.3063 9.873 15.2938 9.423 14.7313L5.148 10.2313C4.5855 9.66875 4.1355 8.65625 4.1355 7.98125V5.39375C4.1355 4.04375 5.148 3.03125 6.3855 3.03125Z" stroke="#292D32" stroke-width="1.5" stroke-miterlimit="10" stroke-linecap="round" stroke-linejoin="round"/>
<path d="M12.6068 3.03125L7.06055 11.9187" stroke="#292D32" stroke-width="1.5" stroke-miterlimit="10" stroke-linecap="round" stroke-linejoin="round"/>
</svg>
