<svg width="25" height="24" viewBox="0 0 25 24" fill="none" xmlns="http://www.w3.org/2000/svg">
<rect x="0.428223" y="0.100006" width="23.8" height="23.8" rx="4" fill="#2DB327"/>
<g clip-path="url(#clip0_302_4340)">
<path d="M6.41595 7.53504C5.96277 6.65438 4.88148 6.30784 4.00082 6.76102C3.12016 7.2142 2.77362 8.29549 3.2268 9.17615L6.98005 16.4698C7.43323 17.3504 8.51452 17.697 9.39518 17.2438C10.2758 16.7906 10.6224 15.7093 10.1692 14.8287L6.41595 7.53504Z" fill="white"/>
<path d="M6.98102 14.8287C6.52784 15.7093 6.87438 16.7906 7.75504 17.2438C8.63569 17.697 9.71698 17.3504 10.1702 16.4698L13.9234 9.17616C14.3766 8.2955 14.0301 7.21421 13.1494 6.76103C12.2687 6.30785 11.1874 6.65439 10.7343 7.53505L6.98102 14.8287Z" fill="white"/>
<path d="M10.171 16.4637L10.1681 16.4694C10.0835 16.6349 9.97572 16.7811 9.85065 16.9072C9.83622 16.9216 9.82179 16.936 9.8064 16.9505C9.79389 16.962 9.78138 16.9745 9.76887 16.9851C9.7506 17.0024 9.73232 17.0178 9.71307 17.0332C9.66497 17.0727 9.61398 17.1102 9.56107 17.1458C9.54279 17.1583 9.52451 17.1689 9.50623 17.1795C9.46967 17.2016 9.43215 17.2227 9.39366 17.2429C9.39366 17.2439 9.39078 17.2449 9.38885 17.2458C9.35807 17.2612 9.32632 17.2766 9.29457 17.2901C9.28976 17.293 9.28495 17.2949 9.27918 17.2968C9.25128 17.3093 9.22241 17.3199 9.19355 17.3305C9.15988 17.343 9.12621 17.3545 9.09157 17.3651C9.05886 17.3748 9.02615 17.3844 8.99344 17.3921C8.99055 17.393 8.98863 17.393 8.98671 17.394C8.95303 17.4017 8.91936 17.4084 8.88569 17.4142C8.88184 17.4152 8.87895 17.4161 8.8751 17.4161C8.84624 17.4219 8.81738 17.4257 8.78852 17.4286C8.74811 17.4344 8.7077 17.4373 8.6673 17.4392C8.63747 17.4411 8.60765 17.4421 8.57782 17.4421H8.57013C8.5403 17.4421 8.51048 17.4411 8.48065 17.4392C8.44025 17.4373 8.39984 17.4344 8.35943 17.4286C8.33057 17.4257 8.30171 17.4219 8.27284 17.4161C8.26707 17.4161 8.26226 17.4152 8.25649 17.4132C8.22474 17.4084 8.19299 17.4017 8.16124 17.394C8.12565 17.3853 8.09005 17.3757 8.05541 17.3651C8.02078 17.3545 7.98711 17.343 7.95343 17.3305C7.92457 17.3199 7.89667 17.3093 7.86781 17.2968C7.863 17.2949 7.85819 17.292 7.85242 17.2901C7.82067 17.2766 7.78892 17.2612 7.75813 17.2458C7.75621 17.2458 7.75525 17.2439 7.75332 17.2429C7.73408 17.2333 7.71484 17.2227 7.69656 17.2122C7.67732 17.2016 7.65904 17.191 7.64076 17.1795C7.62248 17.1689 7.6042 17.1573 7.58688 17.1458C7.53397 17.1121 7.48298 17.0746 7.43391 17.0332C7.41756 17.0197 7.40216 17.0063 7.38677 16.9928C7.37138 16.9793 7.35598 16.9649 7.34059 16.9505C7.32616 16.936 7.31077 16.9216 7.29633 16.9072C7.2819 16.8928 7.26747 16.8774 7.254 16.8629C7.2261 16.8321 7.19916 16.8014 7.17415 16.7696C7.14817 16.7379 7.12412 16.7051 7.10103 16.6715C7.08949 16.6551 7.07794 16.6378 7.06736 16.6214L7.03561 16.5695C7.02503 16.5522 7.01541 16.5349 7.00482 16.5166C6.72582 16.0115 6.696 15.3804 6.97981 14.8281L8.57397 11.7293L10.1681 14.8281C10.4423 15.3611 10.424 15.9672 10.171 16.4637Z" fill="white"/>
<path d="M13.9233 7.5347C13.4701 6.65404 12.3888 6.3075 11.5081 6.76068C10.6275 7.21386 10.2809 8.29515 10.7341 9.17581L14.4874 16.4694C14.9406 17.3501 16.0218 17.6966 16.9025 17.2435C17.7832 16.7903 18.1297 15.709 17.6765 14.8283L13.9233 7.5347Z" fill="white"/>
<path d="M14.4879 14.8279C14.0347 15.7086 14.3812 16.7899 15.2619 17.243C16.1425 17.6962 17.2238 17.3497 17.677 16.469L21.4302 9.17539C21.8834 8.29474 21.5369 7.21345 20.6562 6.76027C19.7756 6.30709 18.6943 6.65363 18.2411 7.53428L14.4879 14.8279Z" fill="white"/>
<path d="M10.731 7.53466L10.7339 7.52889C10.8185 7.36341 10.9263 7.21718 11.0513 7.09114C11.0658 7.07671 11.0802 7.06228 11.0956 7.04785C11.1081 7.03631 11.1206 7.0238 11.1331 7.01322C11.1514 6.9959 11.1697 6.98051 11.1889 6.96511C11.237 6.92567 11.288 6.88815 11.3409 6.85255C11.3592 6.84004 11.3775 6.82946 11.3958 6.81888C11.4323 6.79675 11.4699 6.77558 11.5083 6.75538C11.5083 6.75442 11.5112 6.75345 11.5131 6.75249C11.5439 6.7371 11.5757 6.72171 11.6074 6.70824C11.6122 6.70535 11.617 6.70343 11.6228 6.7015C11.6507 6.689 11.6796 6.67841 11.7084 6.66783C11.7421 6.65532 11.7758 6.64378 11.8104 6.63319C11.8431 6.62357 11.8758 6.61395 11.9086 6.60626C11.9114 6.60529 11.9134 6.60529 11.9153 6.60433C11.949 6.59664 11.9826 6.5899 12.0163 6.58413C12.0202 6.58317 12.023 6.5822 12.0269 6.5822C12.0558 6.57643 12.0846 6.57258 12.1135 6.5697C12.1539 6.56393 12.1943 6.56104 12.2347 6.55911C12.2645 6.55719 12.2944 6.55623 12.3242 6.55623H12.3319C12.3617 6.55623 12.3915 6.55719 12.4213 6.55911C12.4618 6.56104 12.5022 6.56393 12.5426 6.5697C12.5714 6.57258 12.6003 6.57643 12.6292 6.5822C12.6349 6.5822 12.6397 6.58317 12.6455 6.58509C12.6773 6.5899 12.709 6.59664 12.7408 6.60433C12.7764 6.61299 12.8119 6.62261 12.8466 6.63319C12.8812 6.64378 12.9149 6.65532 12.9486 6.66783C12.9774 6.67841 13.0053 6.689 13.0342 6.7015C13.039 6.70343 13.0438 6.70631 13.0496 6.70824C13.0813 6.72171 13.1131 6.7371 13.1439 6.75249C13.1458 6.75249 13.1468 6.75442 13.1487 6.75538C13.1679 6.765 13.1872 6.77558 13.2054 6.78617C13.2247 6.79675 13.243 6.80733 13.2612 6.81888C13.2795 6.82946 13.2978 6.841 13.3151 6.85255C13.369 6.88815 13.419 6.92567 13.4681 6.96511C13.4844 6.97858 13.4998 6.99205 13.5152 7.00552C13.5306 7.01899 13.546 7.03342 13.5614 7.04785C13.5758 7.06228 13.5912 7.07671 13.6057 7.09114C13.6201 7.10558 13.6345 7.12097 13.648 7.1354C13.6759 7.16619 13.7028 7.19697 13.7278 7.22872C13.7538 7.26047 13.7779 7.29318 13.801 7.32685C13.8125 7.34321 13.8241 7.36053 13.8346 7.37688L13.8664 7.42883C13.877 7.44615 13.8866 7.46347 13.8972 7.48175C14.1762 7.98684 14.206 8.61796 13.9222 9.17019L12.328 12.269L10.7339 9.17019C10.4597 8.6372 10.4779 8.03109 10.731 7.53466Z" fill="white"/>
<path d="M17.6764 16.4637L17.6735 16.4694C17.5888 16.6349 17.4811 16.7811 17.356 16.9072C17.3416 16.9216 17.3272 16.936 17.3118 16.9505C17.2993 16.962 17.2868 16.9745 17.2742 16.9851C17.256 17.0024 17.2377 17.0178 17.2184 17.0332C17.1703 17.0727 17.1194 17.1102 17.0664 17.1458C17.0482 17.1583 17.0299 17.1689 17.0116 17.1795C16.975 17.2016 16.9375 17.2227 16.899 17.2429C16.899 17.2439 16.8961 17.2449 16.8942 17.2458C16.8634 17.2612 16.8317 17.2766 16.7999 17.2901C16.7951 17.293 16.7903 17.2949 16.7845 17.2968C16.7566 17.3093 16.7278 17.3199 16.6989 17.3305C16.6653 17.343 16.6316 17.3545 16.5969 17.3651C16.5642 17.3748 16.5315 17.3844 16.4988 17.3921C16.4959 17.393 16.494 17.393 16.4921 17.394C16.4584 17.4017 16.4247 17.4084 16.3911 17.4142C16.3872 17.4152 16.3843 17.4161 16.3805 17.4161C16.3516 17.4219 16.3228 17.4257 16.2939 17.4286C16.2535 17.4344 16.2131 17.4373 16.1727 17.4392C16.1428 17.4411 16.113 17.4421 16.0832 17.4421H16.0755C16.0457 17.4421 16.0158 17.4411 15.986 17.4392C15.9456 17.4373 15.9052 17.4344 15.8648 17.4286C15.8359 17.4257 15.8071 17.4219 15.7782 17.4161C15.7724 17.4161 15.7676 17.4152 15.7619 17.4132C15.7301 17.4084 15.6984 17.4017 15.6666 17.394C15.631 17.3853 15.5954 17.3757 15.5608 17.3651C15.5262 17.3545 15.4925 17.343 15.4588 17.3305C15.4299 17.3199 15.402 17.3093 15.3732 17.2968C15.3684 17.2949 15.3636 17.292 15.3578 17.2901C15.326 17.2766 15.2943 17.2612 15.2635 17.2458C15.2616 17.2458 15.2606 17.2439 15.2587 17.2429C15.2395 17.2333 15.2202 17.2227 15.2019 17.2122C15.1827 17.2016 15.1644 17.191 15.1461 17.1795C15.1278 17.1689 15.1096 17.1573 15.0923 17.1458C15.0393 17.1121 14.9883 17.0746 14.9393 17.0332C14.9229 17.0197 14.9075 17.0063 14.8921 16.9928C14.8767 16.9793 14.8614 16.9649 14.846 16.9505C14.8315 16.936 14.8161 16.9216 14.8017 16.9072C14.7873 16.8928 14.7728 16.8774 14.7594 16.8629C14.7315 16.8321 14.7045 16.8014 14.6795 16.7696C14.6535 16.7379 14.6295 16.7051 14.6064 16.6715C14.5949 16.6551 14.5833 16.6378 14.5727 16.6214L14.541 16.5695C14.5304 16.5522 14.5208 16.5349 14.5102 16.5166C14.2312 16.0115 14.2014 15.3804 14.4852 14.8281L16.0793 11.7293L17.6735 14.8281C17.9477 15.3611 17.9294 15.9672 17.6764 16.4637Z" fill="white"/>
</g>
<defs>
<clipPath id="clip0_302_4340">
<rect width="18.6008" height="10.8878" fill="white" transform="translate(3.02783 6.55617)"/>
</clipPath>
</defs>
</svg>
