<svg width="21" height="21" viewBox="0 0 21 21" fill="none" xmlns="http://www.w3.org/2000/svg">
<path d="M20.75 10.0153C20.75 12.6537 19.7282 15.0534 18.0587 16.8404C16.2336 18.794 13.6344 19.841 10.75 19.841C5.2271 19.841 0.941284 15.5381 0.941284 10.0153C0.941284 7.13096 1.97105 4.53186 3.92449 2.70674C5.71152 1.03717 8.1114 0.0152588 10.75 0.0152588C16.2728 0.0152588 20.75 4.49241 20.75 10.0153Z" fill="#FFD05B"/>
<path d="M10.75 18.0798C15.2039 18.0798 18.8145 14.4692 18.8145 10.0153C18.8145 5.56134 15.2039 1.95073 10.75 1.95073C6.29604 1.95073 2.68542 5.56134 2.68542 10.0153C2.68542 14.4692 6.29604 18.0798 10.75 18.0798Z" fill="#FFEAA5"/>
<path d="M17.5241 10.0153C17.5241 11.741 16.8788 13.3161 15.8163 14.5122C14.5754 15.9092 12.7655 16.6128 10.75 16.6128C7.00867 16.6128 4.19922 13.7565 4.19922 10.0153C4.19922 8.00104 4.85488 6.19213 6.25035 4.95127C7.44684 3.88732 9.02293 3.24107 10.75 3.24107C14.4912 3.24107 17.5241 6.27396 17.5241 10.0153Z" fill="#FFE077"/>
<path d="M11.2339 19.5314C5.71102 19.5314 1.23387 15.0542 1.23387 9.5314C1.23387 6.89308 2.2552 4.49374 3.92457 2.70679C1.97086 4.5319 0.75 7.13073 0.75 10.0153C0.75 15.5381 5.22715 20.0153 10.75 20.0153C13.6345 20.0153 16.2337 18.7941 18.0588 16.8404C16.2718 18.5097 13.8722 19.5314 11.2339 19.5314Z" fill="#FFC244"/>
<path d="M11.3127 16.2267C7.57142 16.2267 4.53853 13.1939 4.53853 9.45257C4.53853 7.72522 5.18618 6.14784 6.25044 4.95128C4.85532 6.19206 3.97583 8.00136 3.97583 10.0153C3.97583 13.7566 7.00876 16.7894 10.75 16.7894C12.764 16.7894 14.5755 15.9073 15.8163 14.5122C14.6198 15.5765 13.0401 16.2267 11.3127 16.2267Z" fill="#FFD05B"/>
<path d="M13.8564 9.23919C13.8114 9.10133 13.6923 9.00102 13.5486 8.98022L11.7432 8.71828L10.9355 7.08531C10.8714 6.95527 10.7326 6.89026 10.5938 6.89026C10.4549 6.89026 10.3161 6.95527 10.252 7.08531L9.44429 8.71828L7.63893 8.98022C7.49526 9.00102 7.37613 9.10133 7.3311 9.23881C7.28642 9.37667 7.32365 9.52786 7.42751 9.62894L8.73407 10.9004L8.42585 12.6954C8.40128 12.838 8.4601 12.9822 8.57735 13.0673C8.69577 13.1531 8.85165 13.1635 8.97863 13.0963L10.5937 12.2491L12.2089 13.0962C12.3369 13.1639 12.4933 13.1531 12.6102 13.0673C12.7274 12.9822 12.7862 12.838 12.7617 12.6953L12.4531 10.9004L13.76 9.62892C13.8639 9.52789 13.9011 9.37667 13.8564 9.23919Z" fill="#FABE2C"/>
</svg>
