<svg width="25" height="25" viewBox="0 0 25 25" fill="none" xmlns="http://www.w3.org/2000/svg">
<path fill-rule="evenodd" clip-rule="evenodd" d="M11.8861 2.13387C12.2472 1.853 12.7528 1.853 13.1139 2.13387L22.1139 9.13387C22.3575 9.32332 22.5 9.61463 22.5 9.92322V20.9232C22.5 21.7189 22.1839 22.4819 21.6213 23.0445C21.0587 23.6071 20.2957 23.9232 19.5 23.9232H5.5C4.70435 23.9232 3.94129 23.6071 3.37868 23.0445C2.81607 22.4819 2.5 21.7189 2.5 20.9232V9.92322C2.5 9.61463 2.64247 9.32332 2.88606 9.13387L11.8861 2.13387ZM4.5 10.4123V20.9232C4.5 21.1884 4.60536 21.4428 4.79289 21.6303C4.98043 21.8179 5.23478 21.9232 5.5 21.9232H19.5C19.7652 21.9232 20.0196 21.8179 20.2071 21.6303C20.3946 21.4428 20.5 21.1884 20.5 20.9232V10.4123L12.5 4.19008L4.5 10.4123Z" fill="#696969"/>
<path fill-rule="evenodd" clip-rule="evenodd" d="M8.5 12.9232C8.5 12.3709 8.94772 11.9232 9.5 11.9232H15.5C16.0523 11.9232 16.5 12.3709 16.5 12.9232V22.9232C16.5 23.4755 16.0523 23.9232 15.5 23.9232C14.9477 23.9232 14.5 23.4755 14.5 22.9232V13.9232H10.5V22.9232C10.5 23.4755 10.0523 23.9232 9.5 23.9232C8.94772 23.9232 8.5 23.4755 8.5 22.9232V12.9232Z" fill="#696969"/>
</svg>
