<svg width="22" height="22" viewBox="0 0 22 22" fill="none" xmlns="http://www.w3.org/2000/svg">
<path d="M3.72022 10.2426C3.72022 11.8151 4.14388 13.2585 4.99122 14.5729C5.83872 15.8874 6.97788 16.8693 8.40872 17.5186C8.60038 17.6186 8.7393 17.7569 8.82547 17.9334C8.91163 18.11 8.9083 18.282 8.81547 18.4494C8.70763 18.6365 8.55138 18.7596 8.34672 18.8186C8.14188 18.8774 7.94422 18.8594 7.75372 18.7646C6.08205 17.9934 4.75705 16.8393 3.77872 15.3021C2.80055 13.7649 2.31147 12.0752 2.31147 10.2329C2.31147 9.7412 2.34655 9.25503 2.41672 8.77436C2.48688 8.29353 2.60113 7.82136 2.75947 7.35786L1.63447 8.00986C1.46397 8.11636 1.28913 8.1417 1.10997 8.08586C0.930801 8.03003 0.790635 7.92103 0.689468 7.75886C0.588135 7.59153 0.562801 7.41703 0.613468 7.23536C0.664135 7.0537 0.773051 6.9122 0.940218 6.81086L3.84797 5.12536C4.0538 5.00803 4.27047 4.98078 4.49797 5.04361C4.72564 5.10645 4.89972 5.23911 5.02022 5.44161L6.68072 8.32911C6.78205 8.49961 6.80605 8.67703 6.75272 8.86136C6.69955 9.0457 6.5893 9.18686 6.42197 9.28486C6.25147 9.3862 6.07405 9.41103 5.88972 9.35936C5.70555 9.30786 5.56438 9.19686 5.46622 9.02636L4.36147 7.12611C4.14547 7.61911 3.98455 8.12653 3.87872 8.64836C3.77305 9.1702 3.72022 9.70161 3.72022 10.2426ZM11.749 2.19636C10.9111 2.19636 10.098 2.3252 9.30947 2.58286C8.52097 2.8407 7.78922 3.2157 7.11422 3.70786C6.94705 3.82203 6.76597 3.86628 6.57097 3.84061C6.37613 3.81495 6.22972 3.72103 6.13172 3.55886C6.01888 3.36986 5.98905 3.17295 6.04222 2.96811C6.09539 2.76328 6.21497 2.60286 6.40097 2.48686C7.18547 1.93686 8.0298 1.51778 8.93397 1.22961C9.83813 0.941448 10.7733 0.797363 11.7395 0.797363C13.0631 0.797363 14.3213 1.05795 15.514 1.57911C16.7065 2.10028 17.7553 2.84961 18.6605 3.82711V2.47536C18.6605 2.2842 18.7289 2.1202 18.8657 1.98336C19.0026 1.84653 19.1681 1.77811 19.3625 1.77811C19.5535 1.77811 19.7174 1.84653 19.8542 1.98336C19.9911 2.1202 20.0595 2.2842 20.0595 2.47536V5.82136C20.0595 6.06053 19.9766 6.26295 19.811 6.42861C19.6453 6.59428 19.4445 6.67711 19.2085 6.67711H15.8625C15.6681 6.67711 15.5026 6.6087 15.3657 6.47186C15.2289 6.33503 15.1605 6.16953 15.1605 5.97536C15.1605 5.7842 15.2289 5.6202 15.3657 5.48336C15.5026 5.34653 15.6681 5.27811 15.8625 5.27811H18.071C17.3108 4.29611 16.3776 3.53703 15.2715 3.00086C14.1655 2.46453 12.9913 2.19636 11.749 2.19636ZM17.7605 15.5829C18.524 14.7265 19.071 13.7614 19.4015 12.6874C19.7318 11.6132 19.8258 10.5108 19.6835 9.38011C19.6656 9.17428 19.7232 8.98886 19.8562 8.82386C19.9892 8.6587 20.1528 8.57611 20.347 8.57611C20.5611 8.57611 20.7381 8.65528 20.8777 8.81361C21.0176 8.97195 21.0964 9.15978 21.1142 9.37711C21.2471 10.5938 21.1396 11.7826 20.7917 12.9436C20.4439 14.1044 19.8841 15.1621 19.1125 16.1166C18.4425 16.9513 17.6583 17.6519 16.76 18.2186C15.8616 18.7853 14.8897 19.1888 13.8442 19.4291L14.9355 20.0629C15.106 20.164 15.2145 20.3047 15.261 20.4849C15.3075 20.665 15.2801 20.8404 15.1787 21.0109C15.0776 21.1814 14.9374 21.2911 14.7582 21.3401C14.5791 21.3891 14.4058 21.363 14.2385 21.2619L11.3327 19.5791C11.1269 19.4618 10.9939 19.2894 10.9337 19.0619C10.8734 18.8342 10.9035 18.6175 11.024 18.4119L12.677 15.5511C12.7781 15.3806 12.9217 15.2688 13.1077 15.2156C13.2936 15.1624 13.4717 15.1865 13.6422 15.2879C13.8096 15.389 13.9156 15.533 13.9605 15.7199C14.0053 15.9069 13.9787 16.0856 13.8807 16.2561L12.7307 18.2261C13.7057 18.1044 14.6253 17.8181 15.4895 17.3671C16.3535 16.9161 17.1105 16.3214 17.7605 15.5829Z" fill="#696969"/>
</svg>
