<svg width="21" height="21" viewBox="0 0 21 21" fill="none" xmlns="http://www.w3.org/2000/svg">
<path d="M2.9214 1.90419C2.22517 1.90419 1.66077 2.49406 1.66077 3.22171V13.7619C1.66077 14.4895 2.22517 15.0794 2.9214 15.0794H15.0055C15.6742 15.0794 16.3154 15.357 16.7883 15.8512L19.3095 18.4862V3.22171C19.3095 2.49406 18.7451 1.90419 18.0489 1.90419H2.9214ZM18.0489 0.58667C19.4413 0.58667 20.5701 1.76642 20.5701 3.22171V20.0766C20.5701 20.6635 19.8912 20.9574 19.4941 20.5424L15.8969 16.7828C15.6605 16.5357 15.3398 16.3969 15.0055 16.3969H2.9214C1.52895 16.3969 0.400146 15.2172 0.400146 13.7619V3.22171C0.400146 1.76642 1.52895 0.58667 2.9214 0.58667H18.0489Z" fill="#696969"/>
</svg>
