<svg width="21" height="21" viewBox="0 0 21 21" fill="none" xmlns="http://www.w3.org/2000/svg">
<path d="M7.51673 15.9936C6.99982 15.9936 6.56027 15.8126 6.19809 15.4506C5.83609 15.0884 5.65509 14.6488 5.65509 14.1319V2.59555C5.65509 2.07846 5.83609 1.63882 6.19809 1.27664C6.56027 0.914642 6.99982 0.733643 7.51673 0.733643H19.0531C19.5702 0.733643 20.0098 0.914642 20.372 1.27664C20.734 1.63882 20.915 2.07846 20.915 2.59555V14.1319C20.915 14.6488 20.734 15.0884 20.372 15.4506C20.0098 15.8126 19.5702 15.9936 19.0531 15.9936H7.51673ZM7.51673 14.4674H19.0531C19.1511 14.4674 19.2315 14.4359 19.2945 14.373C19.3574 14.3101 19.3888 14.2297 19.3888 14.1319V2.59555C19.3888 2.49755 19.3574 2.4171 19.2945 2.35419C19.2315 2.29128 19.1511 2.25982 19.0531 2.25982H7.51673C7.41891 2.25982 7.33854 2.29128 7.27563 2.35419C7.21273 2.4171 7.18127 2.49755 7.18127 2.59555V14.1319C7.18127 14.2297 7.21273 14.3101 7.27563 14.373C7.33854 14.4359 7.41891 14.4674 7.51673 14.4674ZM4.22736 20.8609C3.71263 20.93 3.25382 20.8069 2.85091 20.4916C2.44782 20.1764 2.21291 19.761 2.14618 19.2456L0.766998 8.12019C0.697725 7.60801 0.825998 7.14519 1.15182 6.73173C1.47763 6.31828 1.89791 6.08392 2.41263 6.02864L2.765 6.00982C2.98809 5.98528 3.18218 6.04719 3.34727 6.19555C3.51236 6.34373 3.59491 6.53519 3.59491 6.76991C3.59491 6.96519 3.53491 7.13419 3.41491 7.27692C3.29491 7.41964 3.14091 7.50319 2.95291 7.52755L2.61609 7.55183C2.51827 7.55873 2.44136 7.59892 2.38536 7.67237C2.32936 7.74582 2.30836 7.83146 2.32236 7.92928L3.68927 19.0492C3.70327 19.1472 3.74518 19.2242 3.815 19.2802C3.885 19.336 3.96891 19.3569 4.06673 19.3429L16.8996 17.7371C17.108 17.7113 17.2956 17.762 17.4625 17.8893C17.6293 18.0164 17.7265 18.1859 17.7541 18.3979C17.7817 18.6097 17.7296 18.7959 17.5978 18.9565C17.466 19.117 17.2959 19.2102 17.0875 19.236L4.22736 20.8609Z" fill="#696969"/>
<path d="M17.9873 11.9677H8.64805C8.46114 11.9677 8.32259 11.8832 8.23241 11.7143C8.14241 11.5454 8.16159 11.3809 8.28996 11.2209L9.92686 9.03066C10.0214 8.9083 10.1435 8.84712 10.2931 8.84712C10.4426 8.84712 10.5653 8.90512 10.6613 9.02112L12.4264 11.2586L15.073 7.8263C15.1675 7.70394 15.2913 7.64276 15.4444 7.64276C15.5975 7.64276 15.7221 7.7043 15.8183 7.82739L18.3656 11.2215C18.4816 11.3811 18.4958 11.5454 18.4081 11.7143C18.3203 11.8832 18.18 11.9677 17.9873 11.9677Z" fill="#696969"/>
<path d="M10.6613 6.00982C10.4057 6.26455 10.0969 6.39192 9.73487 6.39192C9.37286 6.39192 9.0645 6.26501 8.80978 6.01119C8.55505 5.75737 8.42768 5.44901 8.42768 5.0861C8.42768 4.72301 8.55459 4.41373 8.80841 4.15828C9.06223 3.90264 9.37059 3.77482 9.7335 3.77482C10.0966 3.77482 10.4059 3.90264 10.6613 4.15828C10.917 4.41391 11.0448 4.72273 11.0448 5.08473C11.0448 5.44673 10.917 5.7551 10.6613 6.00982Z" fill="#696969"/>
</svg>
